<?xml version="1.0" encoding="UTF-8" standalone="no"?>
<svg
   xmlns:dc="http://purl.org/dc/elements/1.1/"
   xmlns:cc="http://creativecommons.org/ns#"
   xmlns:rdf="http://www.w3.org/1999/02/22-rdf-syntax-ns#"
   xmlns:svg="http://www.w3.org/2000/svg"
   xmlns="http://www.w3.org/2000/svg"
   xmlns:sodipodi="http://sodipodi.sourceforge.net/DTD/sodipodi-0.dtd"
   xmlns:inkscape="http://www.inkscape.org/namespaces/inkscape"
   width="96.005951mm"
   height="96.005951mm"
   viewBox="0 0 96.005951 96.005951"
   version="1.1"
   id="svg2820"
   inkscape:version="1.0.2-2 (e86c870879, 2021-01-15)"
   sodipodi:docname="img-not-found.svg">
  <defs
     id="defs2814" />
  <sodipodi:namedview
     id="base"
     pagecolor="#ffffff"
     bordercolor="#666666"
     borderopacity="1.0"
     inkscape:pageopacity="0.0"
     inkscape:pageshadow="2"
     inkscape:zoom="1.4"
     inkscape:cx="45.036949"
     inkscape:cy="223.03222"
     inkscape:document-units="mm"
     inkscape:current-layer="layer1"
     inkscape:document-rotation="0"
     showgrid="false"
     fit-margin-top="0"
     fit-margin-left="0"
     fit-margin-right="0"
     fit-margin-bottom="0"
     inkscape:window-width="1920"
     inkscape:window-height="1051"
     inkscape:window-x="-9"
     inkscape:window-y="-9"
     inkscape:window-maximized="1" />
  <metadata
     id="metadata2817">
    <rdf:RDF>
      <cc:Work
         rdf:about="">
        <dc:format>image/svg+xml</dc:format>
        <dc:type
           rdf:resource="http://purl.org/dc/dcmitype/StillImage" />
        <dc:title></dc:title>
      </cc:Work>
    </rdf:RDF>
  </metadata>
  <g
     inkscape:label="Capa 1"
     inkscape:groupmode="layer"
     id="layer1"
     transform="translate(-29.482143,-46.869045)">
    <rect
       style="fill:#f2f2f2;fill-opacity:1;stroke-width:0.499999;stroke-linecap:round"
       id="rect3383"
       width="96.005951"
       height="96.005951"
       x="29.482143"
       y="46.869045" />
    <g
       style="fill:currentColor"
       id="g3411"
       transform="matrix(2.4649447,0,0,2.4649447,57.760631,75.152463)">
      <path
         d="m 6.002,5.5 a 1.5,1.5 0 1 1 -3,0 1.5,1.5 0 0 1 3,0 z"
         id="path3397" />
      <path
         d="m 2.002,1 a 2,2 0 0 0 -2,2 v 10 a 2,2 0 0 0 2,2 h 12 a 2,2 0 0 0 2,-2 V 3 a 2,2 0 0 0 -2,-2 z m 12,1 a 1,1 0 0 1 1,1 V 9.5 L 11.225,7.553 a 0.5,0.5 0 0 0 -0.577,0.093 l -3.71,3.71 -2.66,-1.772 A 0.5,0.5 0 0 0 3.648,9.646 L 1.002,12 V 3 a 1,1 0 0 1 1,-1 z"
         id="path3399" />
    </g>
  </g>
</svg>
