<svg width="60" height="60" viewBox="0 0 60 60" fill="none" xmlns="http://www.w3.org/2000/svg">
<path d="M39.6721 25.19L38.8036 23.6823C38.6955 23.4946 38.5173 23.3575 38.3081 23.3011C38.099 23.2447 37.876 23.2737 37.6882 23.3818L32.4997 26.3876C32.4675 26.4062 32.4309 26.416 32.3937 26.4159C32.3566 26.4158 32.32 26.4059 32.2879 26.3871C32.2558 26.3684 32.2292 26.3415 32.2108 26.3092C32.1925 26.2768 32.1829 26.2402 32.1833 26.203L32.1875 20.2188C32.1875 19.995 32.0986 19.7804 31.9404 19.6221C31.7821 19.4639 31.5675 19.375 31.3438 19.375H29.6563C29.4325 19.375 29.2179 19.4639 29.0596 19.6221C28.9014 19.7804 28.8125 19.995 28.8125 20.2188L28.8162 26.2078C28.8165 26.245 28.807 26.2816 28.7886 26.3139C28.7703 26.3463 28.7437 26.3732 28.7115 26.3919C28.6794 26.4106 28.6429 26.4205 28.6057 26.4206C28.5685 26.4207 28.532 26.411 28.4998 26.3924L23.3113 23.3865C23.1235 23.2785 22.9005 23.2495 22.6913 23.3058C22.4822 23.3622 22.304 23.4993 22.1959 23.6871L21.3279 25.1953C21.2743 25.288 21.2396 25.3904 21.2257 25.4965C21.2117 25.6027 21.2189 25.7106 21.2468 25.814C21.2747 25.9174 21.3227 26.0142 21.3881 26.099C21.4535 26.1838 21.535 26.2548 21.628 26.308L26.8218 29.3181C26.8535 29.3367 26.8798 29.3633 26.8981 29.3952C26.9164 29.4271 26.926 29.4632 26.926 29.5C26.926 29.5368 26.9164 29.5729 26.8981 29.6048C26.8798 29.6367 26.8535 29.6633 26.8218 29.6819L21.628 32.692C21.4416 32.8006 21.3055 32.9784 21.2493 33.1867C21.1931 33.395 21.2214 33.6171 21.3279 33.8047L22.1964 35.3124C22.3045 35.5001 22.4827 35.6373 22.6919 35.6936C22.901 35.75 23.124 35.721 23.3118 35.613L28.5003 32.6071C28.5325 32.5885 28.5691 32.5788 28.6063 32.5788C28.6434 32.5789 28.68 32.5888 28.7121 32.6076C28.7442 32.6263 28.7708 32.6532 28.7892 32.6855C28.8076 32.7179 28.8171 32.7545 28.8167 32.7917L28.8125 38.7812C28.8125 39.005 28.9014 39.2196 29.0596 39.3779C29.2179 39.5361 29.4325 39.625 29.6563 39.625H31.3438C31.5675 39.625 31.7821 39.5361 31.9404 39.3779C32.0986 39.2196 32.1875 39.005 32.1875 38.7812L32.1838 32.7869C32.1835 32.7497 32.193 32.7131 32.2114 32.6808C32.2297 32.6485 32.2563 32.6216 32.2885 32.6028C32.3206 32.5841 32.3571 32.5742 32.3943 32.5741C32.4315 32.574 32.468 32.5838 32.5002 32.6024L37.6888 35.6082C37.8765 35.7162 38.0995 35.7453 38.3087 35.6889C38.5178 35.6325 38.696 35.4954 38.8041 35.3076L39.6726 33.8C39.7262 33.7073 39.761 33.6049 39.7749 33.4987C39.7888 33.3925 39.7816 33.2847 39.7537 33.1813C39.7259 33.0779 39.6778 32.981 39.6124 32.8963C39.547 32.8115 39.4655 32.7405 39.3726 32.6873L34.1788 29.6772C34.147 29.6586 34.1207 29.632 34.1025 29.6001C34.0842 29.5682 34.0746 29.532 34.0746 29.4953C34.0746 29.4585 34.0842 29.4223 34.1025 29.3904C34.1207 29.3585 34.147 29.3319 34.1788 29.3133L39.3726 26.3032C39.5593 26.1948 39.6957 26.0169 39.7518 25.8084C39.8079 25.5998 39.7793 25.3775 39.6721 25.19Z" stroke="#111111" stroke-width="1.5" stroke-linecap="round" stroke-linejoin="round"/>
</svg>
